<svg xmlns="http://www.w3.org/2000/svg" width="800" height="800" fill="none" viewBox="-0.5 0 25 25"><path stroke="#000" stroke-linecap="round" stroke-linejoin="round" stroke-width="1.5" d="M8.67 5.5v5.53M8.67 11.03l2.75 9.16a1.45 1.45 0 0 0 1.39 1.06v0a1.46 1.46 0 0 0 1.45-1.47V14.5"/><path stroke="#000" stroke-linecap="round" stroke-linejoin="round" stroke-width="1.5" d="M2.001 12.25a3.34 3.34 0 1 0 6.67 0V6.62a3.34 3.34 0 1 0-6.67 0z"/><path stroke="#000" stroke-linecap="round" stroke-linejoin="round" stroke-width="1.5" d="M8.67 6.62A3.35 3.35 0 0 1 12 3.25h4.12a4.44 4.44 0 0 1 4.26 3.2l1.5 5.08a2.25 2.25 0 0 1-2.1 3h-5.5"/></svg>