<svg xmlns="http://www.w3.org/2000/svg" xml:space="preserve" width="800" height="800" viewBox="0 0 292.169 292.169"><path d="M215.868 183.462c-4.564-4.563-10.633-7.075-17.086-7.075-.803 0-1.615.04-2.418.121-11.312 1.143-21.92 5.497-30.679 12.594-.239.193-.55.301-.875.301-.186 0-.545-.038-.865-.296-22.373-18.009-42.845-38.493-60.847-60.884-.392-.488-.39-1.253.006-1.741 7.09-8.754 11.439-19.357 12.578-30.659.729-7.245-1.806-14.354-6.955-19.504l-37.061-37.06c-4.563-4.562-10.626-7.074-17.074-7.074-.785 0-1.58.039-2.36.115-13.275 1.3-25.801 7.231-35.272 16.702-18.202 18.203-22.219 46.596-9.782 69.026 29.314 53.483 99.862 130.607 167.167 167.086 8.437 4.603 18.019 7.036 27.712 7.036 15.388 0 30.379-6.168 41.13-16.92 9.472-9.47 15.404-21.997 16.704-35.273.708-7.217-1.828-14.3-6.959-19.435zM233.113 148.387c.899.215 1.799.317 2.686.317 5.198 0 9.912-3.549 11.175-8.826 6.408-26.788-1.378-54.391-20.826-73.837-19.449-19.449-47.052-27.232-73.839-20.826-6.177 1.477-9.986 7.684-8.509 13.86 1.479 6.177 7.686 9.984 13.86 8.509 18.95-4.534 38.473.969 52.224 14.721 13.751 13.749 19.254 33.271 14.72 52.222-1.478 6.176 2.332 12.381 8.509 13.86"/><path d="M256.553 35.635C229.246 8.328 191.635-4.193 153.358 1.279c-6.287.9-10.655 6.725-9.756 13.013s6.732 10.655 13.012 9.756c31.037-4.438 61.537 5.713 83.676 27.851 22.138 22.14 32.29 52.638 27.851 83.677-.899 6.287 3.469 12.113 9.756 13.012.552.079 1.1.117 1.643.117 5.629 0 10.549-4.139 11.37-9.873 5.472-38.276-7.05-75.889-34.357-103.197"/></svg>